# xmcd CD database file
# Copyright (C) 1993-1998 Ti Kan
#
# Track frame offsets:
#	150
#	16058
#	29473
#	40053
#	51583
#	68390
#	81245
#	96125
#	110105
#	132280
#	146000
#
# Disc length: 2162 seconds
#
# Revision: 1
# Processed by: cddbd v1.4b41PL1 Copyright (c) Steve Scherf et al.
# Submitted via: CDValet v3.31 - Copyright (c) 1997 Greg Leichner
#
DISCID=9308700b
DTITLE=Various Artist - The Drivers' Favorite Songs -Vol. 1-
DYEAR=1900
DGENRE=
TTITLE0=Heard It In A Love Song (The Marshall Tucker Band)
TTITLE1=Good Hearted Woman (Waylon and Willie)
TTITLE2=Only Daddy That'll Walk The Line (Waylon Jennings)
TTITLE3=My Maria (B.W. Stevenson)
TTITLE4=Polk Salad Annie (Tony Joe White)
TTITLE5=I Fall To Pieces (Patsy Cline)
TTITLE6=The Grand Tour (Aaron Neville)
TTITLE7=There Goes Another Love Song (The Outlaws)
TTITLE8=Release Me (Wilson Phillips)
TTITLE9=You've Never Been This Far Before (Conway Twitty)
TTITLE10=Amazing Grace (Elvix Presley)
EXTD=
EXTT0=
EXTT1=
EXTT2=
EXTT3=
EXTT4=
EXTT5=
EXTT6=
EXTT7=
EXTT8=
EXTT9=
EXTT10=
PLAYORDER=
